<svg height="88pt" viewBox="0 0 59 88" width="59pt" xmlns="http://www.w3.org/2000/svg"><path d="m155.440976 17.36753c-32.041979 226.333341-133.632839 228.405517-144.820465 345.405712-11.187626 117.544141 108.422014 190.01847 128.11636 195.017593 0 0-56.195908-65.014499-50.911431-120.445187 3.660468-38.412948 19.462345-52.348327 49.313199-94.335778 21.447246-30.227856 45.652731-71.671361 63.439509-132.90414 63.362176 55.482493 90.532124 87.756622 103.189092 154.713785 12.656969 66.983065-39.594915 187.350544-39.594915 187.350544 189.029631-142.462048 140.644439-359.988645-108.731349-534.802529zm0 0" fill="none" stroke="#960000" stroke-linecap="square" stroke-width="19.780001" transform="matrix(.151535 0 0 .150808 0 .064436)"/></svg>